<svg xmlns="http://www.w3.org/2000/svg" xmlns:xlink="http://www.w3.org/1999/xlink" viewBox="0 0 96 48"><defs><style>.cls-1{opacity:0.9;}.cls-2{fill:#fff;}.cls-3{opacity:0.7;}.cls-4{fill:#ed4c5c;}.cls-5{fill:#ff717f;}.cls-6{fill:#3e4347;}</style><symbol id="Ecoji_Text" data-name="Ecoji Text" viewBox="0 0 59.4 34.13"><g class="cls-1"><path class="cls-2" d="M0,4.33A2.85,2.85,0,0,1,3.19,1.19H13.48a2.09,2.09,0,0,1,2.16,2.2,2.07,2.07,0,0,1-2.16,2.16h-8v4.9h7.65a1.9,1.9,0,0,1,2,2,1.86,1.86,0,0,1-2,2H5.43v5h8a2.18,2.18,0,1,1,0,4.36H3.19A2.84,2.84,0,0,1,0,20.73Z"/><path class="cls-2" d="M15.38,13.82c0-4.8,3-8.12,8.37-8.12A9.38,9.38,0,0,1,29,7.13a3.64,3.64,0,0,1,1.81,2.8A2,2,0,0,1,28.72,12a2.82,2.82,0,0,1-1.94-.92A3.58,3.58,0,0,0,24.1,10c-2.17,0-3.22,1.66-3.22,4.15v1.57c0,2.62.83,4.38,3.27,4.38A3.84,3.84,0,0,0,27,18.82,2.84,2.84,0,0,1,28.85,18a1.89,1.89,0,0,1,2,2,3.91,3.91,0,0,1-2.09,3,9.51,9.51,0,0,1-5,1.28c-5.18,0-8.37-3-8.37-8.38Z"/><path class="cls-2" d="M47.76,14.07V15.8c0,5.42-3.41,8.51-8.53,8.51s-8.54-3.09-8.54-8.49V14.1c0-5.21,3.41-8.4,8.54-8.4S47.76,8.89,47.76,14.07Zm-11.57,0v1.85c0,2.77,1.15,4.4,3,4.4s3-1.63,3-4.4V14.07c0-2.77-1.1-4.39-3-4.39S36.19,11.3,36.19,14.07Z"/><path class="cls-2" d="M45.11,29.34a1.72,1.72,0,0,1-.62-1.41,1.57,1.57,0,0,1,1.7-1.63l.73,0c.91,0,1.31-.53,1.31-2.07V8.9C48.23,7,49.19,6,50.9,6s2.66,1,2.66,2.92V24.49c0,3.56-2.12,5.6-5.78,5.6A3.94,3.94,0,0,1,45.11,29.34ZM51.9,0a2.64,2.64,0,0,1,2.88,2.59,2.89,2.89,0,0,1-5.75,0A2.65,2.65,0,0,1,51.9,0Z"/><path class="cls-2" d="M55.72,0A2.64,2.64,0,0,1,58.6,2.59a2.89,2.89,0,0,1-5.75,0A2.65,2.65,0,0,1,55.72,0Zm1,24c-1.69,0-2.65-1-2.65-2.92V8.9C54.07,7,55.05,6,56.72,6S59.4,7,59.4,8.9V21.12C59.4,23,58.42,24,56.72,24Z"/></g><g class="cls-3"><path class="cls-2" d="M21.23,32.21a1,1,0,1,1-1,1A1,1,0,0,1,21.23,32.21Z"/><path class="cls-2" d="M23.68,34.06c-.52,0-.82-.35-.82-.92V27.71c0-.68.29-1,.87-1,.39,0,.62.19,1,.7L27.15,31h.07V27.6c0-.58.29-.92.81-.92s.82.34.82.92v5.48c0,.63-.29,1-.82,1s-.64-.17-1-.7l-2.47-3.7h-.07v3.48C24.49,33.71,24.2,34.06,23.68,34.06Z"/><path class="cls-2" d="M29.78,27.74a.91.91,0,0,1,1-1h3.29a.67.67,0,0,1,.7.71.66.66,0,0,1-.7.69H31.52V29.7H34a.61.61,0,0,1,.63.65A.6.6,0,0,1,34,31H31.52v1.62h2.55a.7.7,0,1,1,0,1.39H30.8a.9.9,0,0,1-1-1Z"/><path class="cls-2" d="M37.3,33.13v-5H35.92a.73.73,0,0,1,0-1.45h4.53a.73.73,0,0,1,0,1.45H39.06v5a.88.88,0,1,1-1.76,0Z"/></g></symbol></defs><g id="Header_Logo" data-name="Header Logo"><path class="cls-4" d="M16.14,15.31C10.82,16.37,11.63,23.18,2.3,25c8,.42,9.6-7.83,14-8.71Z"/><path class="cls-5" d="M23.4,9.39v0Z"/><path class="cls-5" d="M21,11.61l.75-6.2c-3.2,8-7.08,9.74-5.84,12.51-2.73,2.88-1.41,5.32-1.41,5.32s-2,3.55.42,5.47c-.73,1.3-.63,3.61,1,3.86-.15,2.09.25,4,2.21,3.65.73,2.9,2,2.87,2.47,2.58,2.59,2.4,3.61,1.53,3.9,1.23a7.87,7.87,0,0,0,5.38,1.16,2.36,2.36,0,0,0-2.08-1.94A2.77,2.77,0,0,0,29.88,38a5.39,5.39,0,0,0-2.61-1,1.93,1.93,0,0,0,1.43-1.72,7.2,7.2,0,0,0-4.21,1.36,4.33,4.33,0,0,0-2.15-.82,4.58,4.58,0,0,0-1.82-2.14,5.08,5.08,0,0,0-1.39-3.11,4.84,4.84,0,0,0-.31-2.51c.83-.87,1.33-2.37,1.06-4.77.68-1,1-2.53.68-4.89,1.25-1.41,2.38-4.16,2.84-9C23.38,9.47,23.19,10,21,11.61Z"/><path class="cls-2" d="M19.22,13.41a2.25,2.25,0,0,1-3.62,2.67,2.26,2.26,0,0,1,.49-3.15A2.24,2.24,0,0,1,19.22,13.41Z"/><path class="cls-6" d="M18.28,14.1a1.08,1.08,0,1,1-1.5-.22A1.06,1.06,0,0,1,18.28,14.1Z"/><path class="cls-4" d="M26.67,39a19.93,19.93,0,0,1,3.2,2.17c0-1.2-1.36-2-1.36-2A3.58,3.58,0,0,0,29.88,38,5.2,5.2,0,0,1,26.67,39Z"/><path class="cls-4" d="M23.42,20.69c-.09-.23,0-.39-.34-.32-.72.16-1.18,2.3-3.14,3.27a3.31,3.31,0,0,0,0-.33c.7-.9,1.11-2.41.67-4.93,1.25-1.41,2.38-4.16,2.83-9v0c-.13.63-2.11,9.9-7.06,9.23a2.33,2.33,0,0,0,2.82.79c-1.92,2.77-9.9,4.34-11.3,11.15,2.66-6.26,8.25-6.75,11.41-9.55a4,4,0,0,1-2.79,3.55A4.33,4.33,0,0,0,19,24.11c0,3.38-4.06,4.6-4.06,4.6a4.79,4.79,0,0,0,3.15-.08,3.28,3.28,0,0,1-2.15,3.94,4.1,4.1,0,0,0,2.76-1.05c.72,1.05,1.79,3.24-.56,4.7a4.4,4.4,0,0,0,2.08-1.65c.67.51,2.16,2,.37,4.24a4.3,4.3,0,0,0,1.88-2,2.44,2.44,0,0,1,2,3.22s1.69-2.11.3-3.39a6.12,6.12,0,0,1,2-.43,6.87,6.87,0,0,1-1.11,1.39,9.5,9.5,0,0,1,4.18.32,5.17,5.17,0,0,0-2.6-1,1.88,1.88,0,0,0,1.42-1.72,6.83,6.83,0,0,0-4.11,1.27,4.42,4.42,0,0,0-2.07-.71,4,4,0,0,0-2-2.3,3.62,3.62,0,0,0-.89-2.4,6.71,6.71,0,0,0,4.35-1c.13-.08.31-.19.22-.47,2.22-.5,3.36.76,3.58.46a2.87,2.87,0,0,1,1.73.47A4.29,4.29,0,0,0,28,28.94c.28-.45-2.28-.77-4.2-.1,0-.24.14-.36-.2-.43-.73-.13-2,1.84-4.31,1.88a4.54,4.54,0,0,0-.34-2.16,7,7,0,0,0,4.77-1.86c.12-.11.27-.25.12-.5,1.93-.83,3.48.05,3.64-.29a2.9,2.9,0,0,1,1.79.11,4.79,4.79,0,0,0-1.84-1.35c.13-.48-2.43-.26-4.17.78,0-.23.07-.38-.28-.37-.7,0-1.52,1.94-3.5,2.59A6.17,6.17,0,0,0,20,24.48a7.17,7.17,0,0,0,4.12-2.66c.09-.13.22-.3,0-.52,2-1.28,3.44-.61,3.54-.95a3,3,0,0,1,1.8-.25,4.35,4.35,0,0,0-2.07-1C27.41,18.66,24.94,19.35,23.42,20.69Z"/><use width="59.4" height="34.13" transform="translate(31.96 7.91)" xlink:href="#Ecoji_Text"/></g></svg>